{"glyphs":{":":{"x_min":0,"x_max":310,"ha":310,"o":"m 43 104 q 43 176 70 207 q 98 238 165 238 q 232 238 260 207 q 288 176 288 104 q 288 47 260 14 q 231 -18 178 -18 q 144 -18 104 -5 q 77 3 60 33 q 43 63 43 104 z m 43 421 q 43 489 71 518 q 99 547 165 547 q 225 547 258 518 q 291 489 291 433 q 291 417 288 398 q 285 380 278 357 q 261 295 165 295 q 100 295 72 324 q 43 354 43 421 z"},"$":{"x_min":0,"x_max":620,"ha":620,"o":"m 26 247 l 146 267 q 138 252 135 237 q 129 213 129 191 q 129 102 213 72 q 250 58 287 58 q 320 58 344 68 q 367 79 380 99 q 393 119 393 140 q 393 168 373 187 q 366 194 358 200 q 350 205 336 213 l 320 221 l 307 227 l 286 235 l 254 248 l 248 250 l 205 267 l 186 275 q 29 349 29 492 q 29 514 34 544 q 43 591 69 629 q 103 677 149 700 q 195 724 247 724 l 247 783 l 382 783 l 382 721 q 389 722 393 722 q 432 722 474 697 q 515 672 546 623 q 568 588 568 548 q 568 533 565 516 l 445 496 l 454 525 q 456 539 456 545 q 456 580 436 608 q 416 637 379 653 q 358 661 338 666 q 318 670 299 670 q 254 670 224 649 q 195 628 195 600 q 193 574 210 556 q 228 537 276 516 l 298 508 l 322 499 l 357 486 l 385 476 l 413 466 l 442 454 q 599 382 599 238 q 599 226 598 212 q 597 198 594 184 q 581 115 529 64 q 477 13 398 -4 l 372 -9 l 372 -65 l 243 -65 l 243 -11 l 219 -8 q 125 10 74 64 q 22 119 22 200 q 22 214 23 221 z"},"?":{"x_min":0,"x_max":532,"ha":532,"o":"m 43 104 q 43 176 70 207 q 98 238 165 238 q 232 238 260 207 q 288 176 288 104 q 288 47 260 14 q 231 -18 178 -18 q 144 -18 104 -5 q 78 3 60 36 q 43 68 43 104 z m 206 323 l 206 276 l 108 276 l 108 431 l 199 431 q 198 427 198 419 q 198 396 214 382 q 231 367 255 370 q 281 370 294 390 q 306 410 306 459 q 306 505 296 575 q 292 601 289 612 q 286 624 280 634 q 263 663 232 663 q 212 663 200 650 q 187 638 181 624 q 175 609 175 587 q 175 578 176 564 q 178 551 179 542 l 184 510 l 88 539 l 87 544 l 83 561 q 78 584 78 602 q 78 663 123 699 q 168 735 256 735 q 280 735 293 734 q 306 733 335 728 q 420 714 470 659 q 520 604 520 523 q 520 478 500 424 q 485 385 456 354 q 426 324 389 308 q 377 303 371 301 q 365 299 354 297 q 343 295 331 294 q 319 293 308 293 q 250 293 206 323 z"},"'":{"x_min":0,"x_max":224,"ha":224,"o":"m 29 468 l 51 720 l 195 720 l 173 468 z"},"a":{"x_min":0,"x_max":602,"ha":602,"o":"m 177 340 l 59 365 l 55 385 q 53 401 53 410 q 53 476 103 510 q 158 547 273 547 q 297 547 323 547 q 349 547 370 544 q 479 534 518 504 q 556 473 556 404 l 555 94 q 563 85 567 82 q 582 71 596 75 q 601 78 603 79 q 607 82 608 80 l 624 26 q 598 11 574 3 q 550 -5 516 -9 q 483 -13 461 -13 q 412 -13 379 2 q 346 16 330 43 l 324 36 q 282 -14 201 -14 q 166 -14 130 -4 q 18 26 18 143 q 18 251 128 292 l 242 335 l 256 341 q 285 357 298 372 q 311 386 314 404 q 317 422 317 428 q 317 490 252 490 q 194 490 173 455 q 169 449 166 442 q 160 428 160 412 q 160 392 171 357 q 174 354 176 345 q 176 344 177 340 z m 297 294 l 272 275 q 253 260 246 244 q 238 229 238 197 l 236 114 q 236 101 237 96 q 240 88 241 85 q 247 67 265 67 q 271 67 278 72 q 284 77 289 84 q 294 90 300 103 q 317 137 317 193 l 317 319 q 315 319 314 319 q 300 296 297 294 z"},"L":{"x_min":0,"x_max":556,"ha":556,"o":"m 36 0 l 36 720 l 293 720 l 293 88 l 563 88 l 563 0 z"},"3":{"x_min":0,"x_max":677,"ha":677,"o":"m 51 242 l 168 250 q 161 234 160 221 q 159 208 158 200 q 158 193 158 189 q 158 133 189 101 q 220 69 271 69 q 314 69 342 93 q 371 117 379 160 q 383 181 383 185 q 384 193 384 209 q 384 273 340 300 q 296 326 196 326 l 188 325 l 188 431 l 205 430 q 301 430 339 456 q 377 482 377 545 q 377 588 356 616 q 334 643 295 650 q 281 653 268 653 q 224 653 195 625 q 166 597 166 553 q 167 544 167 540 q 167 527 176 507 l 58 532 q 55 549 55 565 q 55 639 118 685 q 187 735 310 735 q 358 735 406 728 q 510 713 565 668 q 595 643 610 610 q 625 577 625 542 q 625 454 549 407 q 512 386 472 381 q 515 376 554 354 q 598 328 622 286 q 645 245 645 197 q 645 119 588 65 q 545 22 488 4 q 431 -14 330 -14 q 287 -14 269 -12 q 251 -11 217 -5 q 131 11 82 60 q 34 108 34 171 q 34 209 51 242 z"},";":{"x_min":0,"x_max":326,"ha":326,"o":"m 97 -167 l 97 -73 l 109 -66 q 153 -37 165 3 q 153 1 147 1 q 108 1 78 31 q 47 61 43 108 q 43 155 64 190 q 86 224 121 234 q 156 243 183 243 q 240 243 272 207 q 304 171 304 108 q 304 6 258 -59 q 212 -124 112 -162 z m 50 421 q 50 489 78 518 q 106 547 173 547 q 233 547 266 518 q 299 490 299 433 q 299 417 296 398 q 293 380 286 357 q 267 295 173 295 q 108 295 79 324 q 50 353 50 421 z"},"J":{"x_min":0,"x_max":492,"ha":492,"o":"m -6 245 l 118 259 l 113 236 q 109 214 107 196 q 105 179 105 162 q 105 123 116 100 q 126 77 144 69 q 152 65 161 65 q 185 65 191 89 l 195 118 l 196 155 l 196 166 l 196 720 l 456 720 l 456 267 q 456 130 395 58 q 334 -14 216 -14 q 105 -14 46 35 q -13 84 -13 176 q -13 201 -11 214 z"},"V":{"x_min":0,"x_max":598,"ha":598,"o":"m -22 720 l 240 720 l 376 206 l 524 720 l 620 720 l 408 0 l 173 0 z"},"\"":{"x_min":0,"x_max":426,"ha":426,"o":"m 29 468 l 51 720 l 195 720 l 173 468 z m 231 468 l 253 720 l 397 720 l 375 468 z"},"7":{"x_min":0,"x_max":678,"ha":678,"o":"m 44 513 l 74 720 l 638 720 l 638 590 q 475 377 475 48 l 477 0 l 184 0 l 187 49 q 187 172 242 285 q 292 388 395 495 l 414 513 z"},"S":{"x_min":0,"x_max":620,"ha":620,"o":"m 26 247 l 146 267 q 138 252 135 237 q 129 213 129 191 q 129 102 213 72 q 250 58 287 58 q 320 58 344 68 q 367 79 380 99 q 393 119 393 140 q 393 168 373 187 q 366 194 358 200 q 350 205 336 213 l 320 221 l 307 227 l 286 235 l 254 248 l 248 250 l 205 267 l 186 275 q 29 349 29 492 q 29 514 34 544 q 50 630 122 682 q 193 734 306 734 q 427 734 500 677 q 568 624 568 547 q 568 531 565 516 l 445 496 l 454 525 q 456 539 456 545 q 456 580 436 608 q 416 637 379 653 q 358 661 338 666 q 318 670 299 670 q 254 670 224 649 q 195 628 195 600 q 193 574 210 556 q 228 537 276 516 l 298 508 l 322 499 l 357 486 l 385 476 l 413 466 l 442 454 q 599 382 599 238 q 599 226 598 212 q 597 198 594 184 q 579 109 520 56 q 462 4 372 -9 q 328 -15 290 -15 q 164 -15 93 46 q 22 106 22 201 q 22 214 23 221 z"},"}":{"x_min":0,"x_max":367,"ha":367,"o":"m 29 -122 l 29 -36 l 42 -36 q 72 -36 85 -25 q 98 -14 98 12 l 98 266 q 98 295 115 318 q 132 342 161 354 l 187 360 l 161 366 q 132 378 115 402 q 98 425 98 454 l 98 708 q 98 734 86 745 q 74 756 42 756 l 29 756 l 29 842 l 172 842 q 219 842 245 816 q 271 790 271 742 l 271 432 q 271 401 290 380 q 310 360 338 360 q 310 360 290 340 q 271 319 271 288 l 271 -22 q 271 -70 245 -96 q 219 -122 172 -122 z"},"Z":{"x_min":0,"x_max":626,"ha":626,"o":"m 7 0 l 7 92 l 307 625 l 36 625 l 36 720 l 599 720 l 599 635 l 293 93 l 612 93 l 612 0 z"},"x":{"x_min":0,"x_max":526,"ha":526,"o":"m -14 0 l 152 217 l -11 533 l 262 533 l 330 400 l 431 533 l 521 533 l 368 328 l 540 0 l 267 0 l 190 147 l 78 0 z"},")":{"x_min":0,"x_max":360,"ha":360,"o":"m 0 -93 l 0 -30 q 65 49 92 160 q 119 271 119 429 q 119 525 86 608 q 57 681 0 750 l 0 813 q 76 790 136 746 q 235 676 287 574 q 339 472 339 360 q 339 248 287 146 q 235 44 136 -26 q 76 -70 0 -93 z"},"&":{"x_min":0,"x_max":733,"ha":733,"o":"m 200 408 l 178 449 q 172 461 167 472 q 162 484 158 498 q 155 513 153 526 q 151 539 151 555 q 151 632 203 681 q 259 734 351 734 q 364 735 370 735 q 375 735 382 734 q 390 734 400 734 q 469 727 509 686 q 549 646 549 587 q 549 545 527 502 q 511 470 487 443 l 468 422 l 559 279 q 562 281 565 284 q 568 292 571 301 q 620 392 633 490 l 706 490 q 706 427 684 368 q 663 308 620 238 l 602 211 l 733 0 l 444 0 l 422 35 q 398 18 375 8 q 352 -3 321 -9 q 290 -15 254 -15 q 150 -15 86 44 q 22 103 22 197 q 22 270 60 321 q 97 372 180 404 q 183 406 192 407 q 194 407 200 408 z m 240 348 l 233 343 q 217 329 210 318 q 204 308 204 292 q 204 263 250 184 q 285 124 305 107 q 325 90 358 90 l 386 95 q 387 96 349 162 q 349 163 278 283 q 259 315 240 348 z m 463 566 q 464 575 464 579 q 464 602 455 621 q 446 640 430 652 q 410 667 390 667 q 361 667 351 645 q 349 641 349 631 q 349 615 364 590 l 427 493 q 463 520 463 566 z"},"v":{"x_min":0,"x_max":504,"ha":504,"o":"m -22 533 l 236 533 l 339 215 l 448 533 l 526 533 l 337 0 l 171 0 z"},"O":{"x_min":0,"x_max":742,"ha":742,"o":"m 22 359 q 22 514 116 621 q 215 734 371 734 q 530 734 626 636 q 721 537 721 366 q 721 337 720 322 q 719 307 714 275 q 698 158 624 83 q 551 8 435 -10 q 400 -15 373 -15 q 220 -15 119 98 q 22 206 22 359 z m 294 360 q 294 222 303 165 q 320 60 372 60 q 422 60 442 166 q 456 240 456 366 q 456 490 443 557 q 423 660 372 660 q 334 660 314 610 q 294 559 294 413 z"},"(":{"x_min":0,"x_max":360,"ha":360,"o":"m 360 813 l 360 753 q 309 690 279 610 q 249 530 240 424 q 237 391 237 360 q 237 328 240 296 q 250 188 279 110 q 308 32 360 -33 l 360 -93 q 239 -60 152 34 q 64 127 34 257 q 22 308 22 360 q 22 412 34 463 q 64 594 151 687 q 238 780 360 813 z"},"C":{"x_min":0,"x_max":668,"ha":668,"o":"m 620 498 l 508 449 l 510 474 q 510 564 491 606 q 472 649 430 659 q 414 663 397 663 q 345 663 320 604 q 296 544 296 398 l 295 320 q 295 181 324 121 q 352 61 414 61 q 434 61 457 67 q 501 78 525 117 q 549 156 549 228 q 549 239 549 244 q 549 251 548 260 q 547 268 547 273 l 544 299 l 653 273 l 655 239 q 655 122 584 54 q 512 -15 377 -15 q 362 -15 343 -14 q 324 -12 313 -11 q 178 3 101 93 q 21 186 21 340 q 21 358 22 380 q 24 402 28 429 q 46 555 126 636 q 206 717 327 731 q 357 734 384 734 q 491 734 550 682 q 610 629 619 529 z"},"W":{"x_min":0,"x_max":868,"ha":868,"o":"m -14 720 l 244 720 l 338 353 l 437 720 l 584 720 l 681 352 l 781 720 l 882 720 l 683 0 l 518 0 l 428 317 l 342 0 l 176 0 z"},"A":{"x_min":0,"x_max":672,"ha":672,"o":"m 10 0 l 223 720 l 453 720 l 652 0 l 392 0 l 353 144 l 152 144 l 110 0 z m 329 233 l 257 514 l 178 233 z"},"f":{"x_min":0,"x_max":356,"ha":356,"o":"m -9 456 l -9 533 l 53 533 l 53 566 q 53 630 93 674 q 133 717 209 730 q 227 733 235 734 q 243 735 260 735 q 271 734 277 734 q 338 734 374 705 q 409 676 409 635 q 409 623 404 606 l 298 568 l 305 588 q 310 608 308 625 q 308 639 305 648 q 302 656 296 664 q 288 672 279 672 q 268 672 260 660 q 252 648 252 629 q 252 606 264 578 q 276 551 297 533 l 369 533 l 369 456 l 299 456 l 299 0 l 53 0 l 53 456 z"},"Q":{"x_min":0,"x_max":742,"ha":742,"o":"m 547 28 q 556 13 561 6 q 577 -19 587 -23 q 597 -27 604 -27 q 641 -27 641 25 l 641 35 l 706 13 l 707 -11 q 707 -77 668 -118 q 628 -158 568 -158 q 550 -158 527 -153 q 488 -144 461 -117 q 434 -90 424 -46 l 416 -12 l 395 -14 q 222 -14 122 83 q 22 180 22 359 q 22 535 116 634 q 209 734 371 734 q 532 734 626 633 q 720 532 720 359 q 720 253 676 168 q 645 108 592 61 q 555 28 547 28 z m 294 360 q 294 222 303 165 q 320 60 372 60 q 422 60 442 166 q 456 240 456 366 q 456 490 443 557 q 423 660 372 660 q 334 660 314 610 q 294 559 294 413 z"},"w":{"x_min":0,"x_max":738,"ha":738,"o":"m -14 533 l 230 533 l 318 279 l 397 533 l 511 533 l 598 278 l 676 533 l 752 533 l 587 0 l 455 0 l 378 219 l 308 0 l 176 0 z"},"-":{"x_min":0,"x_max":368,"ha":368,"o":"m 22 166 l 22 338 l 346 338 l 346 166 z"},"E":{"x_min":0,"x_max":577,"ha":577,"o":"m 36 0 l 36 720 l 544 720 l 544 632 l 296 632 l 296 434 l 504 434 l 504 348 l 296 348 l 296 88 l 591 88 l 591 0 z"},"s":{"x_min":0,"x_max":560,"ha":560,"o":"m 14 184 l 136 194 q 134 180 135 172 q 135 125 162 95 q 189 65 234 59 q 243 57 258 57 q 269 57 274 58 q 302 64 310 76 q 319 87 319 98 q 319 119 288 137 l 277 143 l 269 147 l 250 155 l 233 163 l 217 170 l 210 173 l 184 186 l 159 199 l 145 206 l 122 221 q 34 283 34 365 q 34 373 36 384 q 37 395 38 401 q 50 457 96 494 q 142 530 227 543 q 234 544 251 545 q 268 546 293 546 q 308 546 315 546 q 409 546 463 497 q 513 452 513 384 l 394 376 q 396 388 396 393 q 396 424 376 448 q 357 472 322 481 q 304 486 290 486 q 267 486 251 476 q 235 466 235 450 q 235 432 253 417 q 261 410 271 405 l 285 399 l 307 390 l 346 374 l 361 368 l 390 356 q 420 344 442 330 q 465 316 483 300 q 538 250 538 177 q 538 139 520 103 q 503 67 470 41 q 438 15 390 0 q 343 -14 282 -14 q 270 -14 264 -14 q 255 -14 248 -14 q 240 -13 234 -12 q 140 -4 90 28 q 40 59 21 115 q 13 141 13 167 q 13 178 14 184 z"},"l":{"x_min":0,"x_max":315,"ha":315,"o":"m 36 0 l 36 713 l 96 714 q 139 714 174 716 q 209 719 279 731 l 279 0 z"},"8":{"x_min":0,"x_max":677,"ha":677,"o":"m 138 338 q 98 362 74 404 q 50 447 50 500 q 50 539 65 581 q 86 641 142 681 q 199 721 284 732 q 307 735 330 735 q 343 735 356 734 q 370 732 384 731 q 449 722 493 697 q 537 672 558 636 q 579 600 579 557 q 579 520 560 488 q 542 455 511 440 q 569 418 604 363 q 638 308 638 241 q 638 202 625 164 q 612 125 584 91 q 542 39 481 12 q 420 -15 337 -15 q 309 -15 269 -10 q 208 -2 166 16 q 125 33 93 64 q 37 117 37 189 q 37 269 103 317 q 113 322 131 333 q 133 334 138 338 z m 182 279 q 146 234 146 187 q 146 104 243 68 q 255 64 285 60 q 315 55 331 55 q 357 55 375 60 q 393 64 407 77 q 441 109 441 151 q 441 192 404 216 q 396 221 351 238 q 237 282 230 285 l 200 299 q 195 294 193 292 q 184 283 182 279 z m 462 477 q 476 509 476 538 q 476 548 475 553 q 464 636 369 659 q 343 665 322 665 q 276 665 249 642 q 222 619 222 586 q 222 556 248 538 q 274 520 352 499 l 435 472 l 456 465 z"},"e":{"x_min":0,"x_max":568,"ha":568,"o":"m 545 241 l 265 241 l 264 212 q 264 122 289 84 q 314 47 365 47 q 453 47 453 152 q 453 154 450 177 q 448 200 448 205 q 449 210 451 215 l 546 190 q 551 189 551 182 q 551 178 549 170 q 547 162 546 159 q 546 79 486 32 q 427 -14 320 -14 q 292 -14 262 -11 q 149 0 85 68 q 21 136 21 244 q 21 273 22 286 q 24 298 29 321 q 48 415 112 474 q 177 534 270 545 q 280 547 291 547 q 302 547 308 547 q 417 547 482 474 q 546 402 546 273 q 547 258 547 252 q 547 249 547 246 q 545 242 545 241 z m 357 313 l 354 398 l 353 414 q 350 441 347 454 q 344 467 335 478 q 326 490 313 490 q 297 490 290 479 q 284 468 280 454 q 277 439 273 413 l 271 401 l 267 313 z"},"b":{"x_min":0,"x_max":608,"ha":608,"o":"m 36 0 l 36 711 l 100 713 q 154 713 215 722 q 228 724 284 734 l 284 500 l 309 521 q 344 547 394 547 q 413 547 423 545 l 451 537 q 511 515 548 450 q 586 384 586 285 q 586 266 586 247 q 583 229 582 221 q 568 108 506 46 q 445 -15 351 -15 q 344 -15 336 -14 q 327 -13 322 -13 q 272 -8 240 9 q 207 26 177 62 q 176 63 171 73 q 168 75 166 78 l 97 0 z m 276 254 q 276 165 280 136 q 289 72 320 72 q 341 72 349 115 q 354 144 354 208 l 354 258 l 354 303 q 354 370 349 401 q 341 448 320 448 q 293 448 284 414 q 275 381 275 323 q 275 305 275 288 q 275 270 276 254 z"},"%":{"x_min":0,"x_max":894,"ha":894,"o":"m 87 0 l 195 0 l 807 720 l 699 720 z m 656 368 q 759 368 816 318 q 873 267 873 181 q 873 97 816 44 q 758 -8 662 -8 q 549 -8 493 42 q 437 92 437 181 q 437 265 496 316 q 556 368 656 368 z m 244 736 q 347 736 404 686 q 461 635 461 549 q 461 465 404 412 q 346 360 250 360 q 137 360 81 410 q 25 460 25 549 q 25 633 84 684 q 144 736 244 736 z m 616 178 q 616 98 620 72 q 629 14 660 14 q 681 14 688 42 q 695 70 695 120 q 695 132 694 148 q 694 163 694 182 q 694 196 694 211 q 694 226 695 242 q 695 306 686 326 q 676 346 656 346 q 632 346 624 318 q 615 291 615 242 q 615 225 615 209 q 615 193 616 178 z m 204 546 q 204 466 208 440 q 217 382 248 382 q 269 382 276 410 q 283 438 283 488 q 283 500 282 516 q 282 531 282 550 q 282 564 282 579 q 282 594 283 610 q 283 674 274 694 q 264 714 244 714 q 220 714 212 686 q 203 659 203 610 q 203 593 203 577 q 203 561 204 546 z"},"m":{"x_min":0,"x_max":941,"ha":941,"o":"m 36 0 l 36 521 q 99 521 152 526 q 206 531 267 544 l 281 452 q 305 493 349 519 q 367 530 388 538 q 409 545 420 546 q 432 548 438 548 q 446 548 449 548 q 541 548 582 472 l 589 457 l 599 469 q 625 500 652 516 q 691 540 733 545 q 743 546 750 546 q 758 547 763 547 q 805 547 834 534 q 863 520 882 493 q 897 472 901 451 q 905 430 905 371 l 905 0 l 661 0 l 661 359 l 661 405 l 661 409 l 660 421 l 658 427 q 655 433 648 433 q 642 433 637 428 q 632 422 628 416 q 621 405 615 394 q 590 344 590 284 l 590 0 l 353 0 l 353 359 l 353 399 l 353 403 l 352 416 q 352 425 348 429 q 345 434 339 434 q 334 434 329 429 q 319 420 311 404 q 300 383 292 356 q 280 317 280 269 l 280 0 z"},",":{"x_min":0,"x_max":298,"ha":298,"o":"m 69 -167 l 69 -73 l 80 -66 q 125 -38 137 3 q 125 1 120 1 q 83 1 55 30 q 27 59 22 108 q 21 115 21 121 q 21 126 21 128 q 21 183 55 212 q 89 241 152 241 q 215 241 246 208 q 276 176 276 105 q 276 88 276 72 q 273 56 272 49 q 260 -26 215 -78 q 170 -130 84 -162 z"},"n":{"x_min":0,"x_max":631,"ha":631,"o":"m 36 0 l 36 521 q 98 521 160 527 q 179 529 197 532 q 215 534 266 543 l 280 451 q 289 469 300 482 q 311 494 333 510 l 348 521 q 385 542 408 544 q 432 547 440 547 q 448 547 452 547 q 532 547 568 500 q 583 481 589 456 q 595 432 595 383 l 595 0 l 351 0 l 351 359 l 352 392 l 352 397 l 351 418 l 350 427 q 346 438 338 436 q 331 435 326 430 q 321 425 310 406 l 299 380 q 280 328 280 271 l 280 0 z"},"h":{"x_min":0,"x_max":631,"ha":631,"o":"m 36 0 l 36 711 l 160 717 q 187 720 211 723 q 235 726 281 734 l 281 460 l 289 470 q 316 503 351 522 q 395 547 454 547 l 482 545 q 545 536 570 502 q 595 467 595 388 l 595 0 l 351 0 l 351 355 l 353 395 l 353 399 l 352 417 l 350 425 q 347 436 337 436 q 333 436 327 432 q 318 424 305 397 q 301 389 299 384 q 296 377 293 366 q 286 341 283 316 q 280 292 280 253 l 280 0 z"},"z":{"x_min":0,"x_max":516,"ha":516,"o":"m 14 0 l 14 83 l 226 457 l 35 457 l 35 533 l 494 533 l 494 458 l 280 78 l 494 78 l 494 0 z"},"B":{"x_min":0,"x_max":707,"ha":707,"o":"m 36 0 l 36 720 l 418 720 q 463 720 500 712 q 537 704 565 690 q 608 668 632 628 q 657 587 657 542 q 657 476 608 428 q 595 416 562 400 q 529 384 510 381 l 544 375 q 596 359 631 327 q 666 295 680 250 q 684 238 687 218 q 690 199 690 187 q 690 105 623 52 q 556 0 439 0 z m 297 75 l 336 75 q 381 75 404 100 q 426 126 426 185 q 426 215 420 254 q 407 336 332 336 l 297 336 z m 336 411 q 373 411 389 438 q 405 466 405 535 q 405 595 388 620 q 370 644 332 644 l 297 644 l 297 411 z"},"K":{"x_min":0,"x_max":704,"ha":704,"o":"m 36 0 l 36 720 l 295 720 l 295 411 l 520 720 l 640 720 l 468 497 l 744 0 l 457 0 l 311 289 l 295 267 l 295 0 z"},"R":{"x_min":0,"x_max":692,"ha":692,"o":"m 36 0 l 36 720 l 391 720 q 406 720 416 720 q 427 720 452 716 q 556 703 608 656 q 660 609 660 535 q 660 477 626 432 q 593 388 535 370 l 508 364 l 534 357 q 594 335 619 304 q 644 272 644 210 l 647 100 q 647 66 654 44 q 660 22 674 0 l 405 0 q 385 0 385 38 q 385 49 387 84 q 389 120 389 131 l 391 238 l 390 262 q 390 309 374 328 q 357 346 318 346 l 294 346 l 294 0 q 294 2 265 2 q 236 3 221 3 q 122 3 91 2 q 60 2 36 0 z m 322 420 q 369 420 390 446 q 410 472 410 536 q 410 642 333 642 l 295 642 l 295 420 z"},"T":{"x_min":0,"x_max":608,"ha":608,"o":"m -7 631 l -7 720 l 615 720 l 615 630 l 434 630 l 434 0 l 173 0 l 173 631 z"},"P":{"x_min":0,"x_max":668,"ha":668,"o":"m 36 0 l 36 720 l 408 720 q 527 720 594 660 q 661 600 661 502 q 661 400 587 344 q 513 289 366 289 l 297 289 l 297 0 q 282 1 267 3 q 240 3 225 3 q 159 3 118 2 q 77 2 36 0 z m 331 371 q 373 371 392 402 q 412 433 412 508 q 412 584 392 614 q 373 643 327 643 l 298 643 l 298 371 z"},"t":{"x_min":0,"x_max":400,"ha":400,"o":"m -11 456 l -11 533 l 62 533 l 62 590 q 194 613 307 686 l 307 533 l 399 533 l 399 456 l 307 456 l 307 103 l 307 93 l 307 82 l 310 70 q 313 62 324 62 q 332 62 338 68 q 344 74 346 84 l 425 84 l 418 70 q 379 -4 276 -14 q 267 -15 250 -15 q 237 -15 224 -15 q 212 -12 207 -11 q 127 2 94 43 q 61 84 61 168 l 61 456 z"},"M":{"x_min":0,"x_max":799,"ha":799,"o":"m 36 0 l 36 720 l 295 720 l 394 362 l 488 720 l 763 720 l 763 0 l 505 0 l 505 452 l 386 0 l 250 0 l 124 451 l 124 0 z"},"g":{"x_min":0,"x_max":602,"ha":602,"o":"m 147 208 q 118 218 94 236 q 61 261 44 293 q 27 325 27 362 q 27 429 83 482 q 112 508 154 524 q 197 541 256 546 q 280 546 292 546 q 307 546 322 546 q 336 546 353 543 l 351 563 q 351 618 382 652 q 412 685 469 685 q 519 685 550 660 q 582 636 582 600 q 582 592 581 588 q 576 560 556 545 q 536 530 507 533 q 497 533 489 536 q 481 540 477 543 q 471 547 468 549 q 456 557 452 558 q 448 560 440 560 q 431 560 426 555 q 420 550 416 539 l 414 532 l 435 526 q 503 503 539 460 q 575 417 575 362 q 575 347 574 339 q 573 331 568 315 q 551 256 476 218 q 401 180 280 180 l 245 183 l 220 187 l 210 178 q 202 169 202 159 q 202 152 206 144 q 211 137 220 134 q 228 132 241 130 q 251 128 290 131 q 329 134 359 137 q 420 137 464 134 q 507 130 548 107 q 582 88 602 56 q 621 23 621 -12 q 621 -63 584 -104 q 546 -145 484 -169 q 411 -197 315 -197 q 284 -197 248 -194 q 187 -188 128 -173 q 68 -158 48 -143 q 23 -125 23 -97 q 23 -64 56 -44 q 63 -40 86 -34 q 108 -27 116 -26 q 103 -24 95 -21 q 92 -20 73 -11 q 45 3 30 26 q 14 48 14 75 q 14 95 21 112 q 28 130 46 148 q 74 179 129 201 z m 322 -127 q 340 -127 374 -120 q 408 -114 415 -108 q 430 -94 430 -83 q 430 -71 414 -64 q 398 -56 387 -56 l 349 -53 q 332 -53 312 -53 q 292 -53 269 -54 l 212 -60 q 190 -62 180 -72 q 169 -81 169 -93 q 171 -107 195 -115 q 233 -127 322 -127 z m 260 354 q 260 336 260 327 q 260 288 268 266 q 275 244 300 244 q 321 244 328 260 q 336 277 336 306 q 336 315 335 336 q 334 356 334 366 q 334 379 334 385 q 334 436 330 454 q 323 488 300 488 q 275 488 268 458 q 260 427 260 375 q 260 361 260 354 z"},"j":{"x_min":0,"x_max":325,"ha":325,"o":"m -45 -95 l 28 -46 l 29 -60 q 33 -105 57 -113 q 61 -115 69 -115 q 92 -115 100 -94 q 102 -86 102 -81 q 102 -66 94 -50 q 85 -33 66 -17 q 61 -12 55 -8 q 51 -5 41 -1 l 41 521 q 172 521 288 544 l 288 12 q 288 -81 278 -111 q 259 -169 188 -186 l 154 -192 q 131 -195 113 -195 q 54 -195 17 -169 q -12 -148 -45 -95 z m 30 648 q 30 686 64 713 q 99 740 159 740 q 188 740 226 731 q 277 718 294 685 q 304 668 304 647 q 304 606 268 583 q 249 571 224 564 q 199 558 167 558 q 100 558 65 584 q 30 609 30 648 z"},"i":{"x_min":0,"x_max":322,"ha":322,"o":"m 38 0 l 38 524 l 100 524 q 154 524 215 533 q 228 535 284 545 l 284 0 z m 24 648 q 24 686 58 713 q 93 740 153 740 q 182 740 220 731 q 271 718 288 685 q 298 668 298 647 q 298 606 262 583 q 243 571 218 564 q 193 558 161 558 q 94 558 59 584 q 24 609 24 648 z"},"y":{"x_min":0,"x_max":505,"ha":505,"o":"m -22 533 l 244 533 l 333 276 l 438 533 l 527 533 l 283 -51 l 270 -78 q 239 -142 205 -168 q 171 -194 119 -194 q 59 -194 23 -161 q 4 -145 -7 -122 l 82 -59 q 83 -70 84 -73 q 85 -79 90 -88 l 98 -102 q 110 -119 130 -119 q 149 -119 165 -103 q 174 -94 184 -74 l 192 -59 l 199 -43 l 203 -31 z"},".":{"x_min":0,"x_max":289,"ha":289,"o":"m 22 104 q 22 176 50 207 q 77 238 144 238 q 211 238 239 207 q 267 176 267 104 q 267 47 238 14 q 210 -18 157 -18 q 123 -18 83 -5 q 54 4 38 30 q 22 56 22 104 z"},"p":{"x_min":0,"x_max":619,"ha":619,"o":"m 36 -180 l 36 521 q 81 521 125 524 q 169 527 215 534 l 269 544 l 283 489 l 292 500 q 334 547 396 547 q 414 547 423 545 q 471 538 511 502 q 551 466 576 403 q 581 390 584 362 q 587 334 587 297 q 587 231 580 175 q 572 119 555 88 q 529 39 485 12 q 441 -15 394 -15 q 324 -15 281 37 l 281 -183 q 262 -181 236 -180 q 209 -179 159 -179 q 117 -179 88 -179 q 60 -179 36 -180 z m 274 256 q 274 240 274 224 q 273 208 273 192 q 273 132 280 107 q 291 69 321 69 q 344 69 352 102 q 360 136 360 190 q 360 209 360 228 q 359 247 359 265 q 359 287 360 311 q 361 335 362 360 q 362 401 354 424 q 346 447 324 447 q 285 447 277 351 q 274 315 274 256 z"},"X":{"x_min":0,"x_max":660,"ha":660,"o":"m -14 720 l 272 720 l 386 510 l 513 720 l 626 720 l 439 420 l 674 0 l 389 0 l 262 229 l 121 0 l 5 0 l 208 322 z"},"*":{"x_min":0,"x_max":452,"ha":452,"o":"m 217 510 q 198 517 174 523 q 149 529 139 530 l 134 531 l 108 534 l 96 537 q 21 551 21 598 q 21 610 29 626 q 46 654 76 654 q 102 654 123 630 l 136 615 l 144 606 l 155 591 l 166 576 q 169 571 178 562 q 187 554 194 547 l 211 530 l 222 521 q 219 543 213 561 l 198 595 l 196 600 l 185 631 l 173 659 q 169 667 169 694 q 174 729 205 737 q 216 741 229 741 q 255 741 270 723 q 285 705 283 677 l 279 659 l 267 631 l 264 622 l 254 595 l 239 561 q 236 554 234 547 q 233 541 230 521 l 241 530 l 258 547 q 280 567 286 576 l 289 579 l 308 606 l 314 613 q 350 655 376 655 q 392 655 411 640 q 430 624 430 598 q 430 567 402 551 q 393 544 376 541 l 358 537 l 344 534 l 333 533 l 313 530 l 293 526 q 267 521 235 510 l 271 499 l 306 492 l 323 489 l 345 487 l 354 485 l 375 483 q 392 480 407 472 q 432 456 432 427 q 432 409 422 395 q 406 370 375 370 q 341 370 316 404 l 306 418 q 283 455 257 478 l 230 500 q 234 472 237 462 q 245 445 250 433 l 262 404 l 266 395 l 272 381 l 279 365 l 284 349 q 286 339 286 335 q 286 312 270 298 q 253 283 226 283 q 199 283 182 298 q 166 312 166 336 q 166 339 168 349 l 173 365 l 179 380 l 186 395 l 190 403 l 203 433 q 211 453 216 468 q 220 483 222 500 l 195 478 q 171 456 146 418 l 136 404 q 111 370 77 370 q 47 370 30 395 q 20 409 20 427 q 20 456 45 472 q 60 480 77 483 l 98 485 l 107 487 l 129 489 l 146 492 q 154 492 159 493 q 174 498 181 499 z"},"Y":{"x_min":0,"x_max":581,"ha":581,"o":"m -22 720 l 245 720 l 375 396 l 501 720 l 603 720 l 425 266 l 425 0 l 165 0 l 165 265 z"},"c":{"x_min":0,"x_max":564,"ha":564,"o":"m 526 382 l 415 327 q 416 335 418 343 q 419 351 419 362 q 419 434 398 462 q 381 485 354 485 q 330 485 312 467 q 301 456 294 437 q 286 418 280 388 q 275 358 274 306 q 273 255 273 224 q 273 128 293 87 q 313 46 354 46 q 360 46 368 48 q 377 49 381 50 l 400 57 q 425 71 438 98 q 451 124 451 173 q 451 185 451 191 q 451 198 451 206 q 449 218 449 223 l 447 244 l 546 214 q 546 206 547 198 q 548 190 547 184 q 547 -13 265 -13 q 153 -13 86 56 q 20 124 20 238 q 20 281 30 325 q 48 408 105 465 q 162 522 243 539 q 289 549 330 549 q 416 549 468 510 q 519 471 526 411 z"},"!":{"x_min":0,"x_max":315,"ha":315,"o":"m 45 104 q 45 176 72 207 q 100 238 167 238 q 234 238 262 207 q 290 176 290 104 q 290 47 262 14 q 233 -18 180 -18 q 146 -18 106 -5 q 81 3 62 30 q 44 57 44 89 q 44 99 45 104 z m 40 616 q 37 630 37 642 q 37 684 70 710 q 102 735 164 735 q 175 735 183 735 q 191 735 212 731 q 250 726 273 700 q 296 675 296 639 q 296 628 293 616 l 215 277 l 117 277 z"},"/":{"x_min":0,"x_max":474,"ha":474,"o":"m 22 -12 l 344 732 l 452 732 l 129 -12 z"},"[":{"x_min":0,"x_max":320,"ha":320,"o":"m 36 -98 l 36 819 l 313 819 l 313 676 l 254 676 l 254 45 l 313 45 l 313 -98 z"},"6":{"x_min":0,"x_max":677,"ha":677,"o":"m 584 524 l 477 507 q 482 520 484 532 q 485 544 485 558 q 485 604 464 632 q 444 661 414 661 q 362 661 335 623 q 304 579 304 479 l 303 446 l 318 454 q 363 478 417 478 q 511 478 573 414 q 635 350 635 252 q 635 208 620 158 q 594 76 526 31 q 457 -14 352 -14 q 206 -14 126 89 q 47 192 47 385 q 47 543 137 634 q 216 714 355 734 q 378 737 397 737 q 479 737 527 682 q 561 643 576 580 q 580 552 584 524 z m 295 214 q 295 141 300 116 q 311 63 345 63 q 374 63 385 106 q 392 134 392 197 q 392 219 392 229 q 392 246 392 255 q 392 319 386 345 q 376 390 345 390 q 315 393 303 330 q 295 287 295 214 z"},"r":{"x_min":0,"x_max":482,"ha":482,"o":"m 36 0 l 36 521 q 79 521 122 524 q 165 527 210 534 l 260 544 l 274 450 l 281 469 q 311 536 369 546 q 383 548 391 548 q 434 548 462 519 q 490 490 490 443 q 490 428 487 413 q 481 380 470 346 l 464 329 l 318 329 l 323 342 l 330 362 l 336 380 q 347 417 347 433 q 347 439 345 445 q 340 457 327 457 q 323 457 318 454 q 312 450 305 439 q 298 428 293 411 q 282 378 282 308 l 282 0 z"},"2":{"x_min":0,"x_max":678,"ha":678,"o":"m 35 0 l 35 119 l 101 182 l 199 268 l 209 277 l 250 314 l 293 355 q 344 408 370 455 q 395 502 395 542 q 395 574 380 604 q 355 655 298 655 q 278 655 260 648 q 242 640 225 623 q 203 601 192 572 q 181 542 181 499 q 181 463 190 415 l 196 391 l 59 423 l 55 438 q 47 475 47 504 q 47 605 122 670 q 198 734 329 734 q 349 734 370 734 q 388 731 396 730 q 472 721 527 695 q 582 669 612 622 q 643 575 643 521 q 643 444 583 385 q 562 364 542 348 q 522 332 472 298 q 439 275 377 238 l 355 226 l 338 217 l 632 217 l 632 0 z"},"{":{"x_min":0,"x_max":367,"ha":367,"o":"m 29 360 q 58 360 77 380 q 96 400 96 432 l 96 742 q 96 790 122 816 q 148 842 195 842 l 338 842 l 338 756 l 325 756 q 295 756 282 745 q 269 734 269 708 l 269 454 q 269 390 207 366 l 180 360 l 207 354 q 235 343 252 319 q 269 295 269 266 l 269 12 q 269 -36 325 -36 l 338 -36 l 338 -122 l 195 -122 q 148 -122 122 -96 q 96 -70 96 -22 l 96 288 q 96 318 77 339 q 58 360 29 360 z"},"9":{"x_min":0,"x_max":677,"ha":677,"o":"m 92 196 l 198 216 q 196 209 194 200 q 192 192 192 185 q 192 123 212 92 q 231 60 269 60 q 279 60 291 63 q 329 72 350 113 q 372 154 372 241 l 372 273 q 363 266 355 262 q 347 257 342 255 q 303 238 260 238 q 210 238 163 260 q 107 287 74 342 q 42 396 42 464 q 42 511 60 562 q 88 643 156 688 q 225 734 320 734 q 461 734 542 654 q 628 569 628 411 q 628 214 546 100 q 463 -14 317 -14 q 209 -14 152 36 q 91 89 91 184 q 91 189 91 194 q 91 195 92 196 z m 279 474 q 279 398 283 378 q 293 327 330 327 q 372 327 379 412 q 381 436 381 495 q 381 573 376 600 q 365 657 330 657 q 299 657 287 594 q 279 552 279 474 z"}," ":{"x_min":0,"x_max":290,"ha":290,"o":""},"I":{"x_min":0,"x_max":332,"ha":332,"o":"m 36 0 l 36 720 l 296 720 l 296 0 z"},"H":{"x_min":0,"x_max":715,"ha":715,"o":"m 36 0 l 36 720 l 297 720 l 297 439 l 418 439 l 418 720 l 679 720 l 679 0 l 419 0 l 419 353 l 296 353 l 296 0 z"},"4":{"x_min":0,"x_max":677,"ha":677,"o":"m 34 138 l 34 252 l 386 720 l 560 720 l 560 241 l 646 241 l 646 139 l 559 139 l 559 0 l 299 0 l 299 138 z m 301 242 l 301 456 l 152 242 z"},"~":{"x_min":0,"x_max":519,"ha":519,"o":"m 29 265 l 30 293 q 38 377 74 420 q 109 463 165 463 q 192 463 229 450 l 314 418 l 334 411 q 343 407 352 407 q 370 407 380 438 l 384 455 l 385 464 l 490 464 l 488 437 q 481 353 446 310 q 411 267 354 267 q 336 267 320 270 q 305 274 289 280 l 205 311 l 184 319 q 172 323 168 323 q 149 323 139 292 q 135 282 135 275 l 134 265 z"},"D":{"x_min":0,"x_max":729,"ha":729,"o":"m 36 0 l 36 720 l 381 720 q 531 720 619 625 q 707 530 707 356 q 707 188 616 94 q 525 0 366 0 z m 331 74 q 386 74 410 124 q 435 173 435 311 q 435 667 336 653 l 295 647 l 295 74 z"},"0":{"x_min":0,"x_max":678,"ha":678,"o":"m 22 360 q 22 497 96 604 q 171 712 291 730 q 315 734 339 734 q 353 734 367 734 q 381 731 387 730 q 513 711 584 616 q 656 521 656 360 q 656 189 579 90 q 496 -16 339 -16 q 184 -16 98 100 q 22 203 22 360 z m 286 206 q 295 117 306 89 q 317 61 339 61 q 360 61 372 92 q 383 123 392 212 q 393 216 393 269 q 393 322 394 358 l 394 430 q 394 439 394 443 q 394 450 394 454 q 394 470 394 486 q 392 502 392 506 q 383 599 372 629 q 361 659 339 659 q 318 659 306 629 q 295 599 286 513 q 285 503 285 468 q 285 434 285 410 q 285 348 285 297 q 285 246 286 206 z"},"F":{"x_min":0,"x_max":527,"ha":527,"o":"m 36 0 l 36 720 l 549 720 l 549 632 l 295 632 l 295 412 l 510 412 l 510 325 l 296 325 l 296 0 z"},"k":{"x_min":0,"x_max":611,"ha":611,"o":"m 36 0 l 36 714 q 105 714 134 716 q 164 717 220 723 l 282 732 l 282 295 l 480 533 l 574 533 l 474 411 l 633 0 l 380 0 l 311 206 l 274 183 l 281 0 z"},"u":{"x_min":0,"x_max":633,"ha":633,"o":"m 36 158 l 36 521 q 52 521 60 521 q 72 521 84 521 q 95 523 99 523 q 142 523 180 528 q 219 533 281 544 l 281 177 l 281 160 l 281 144 l 282 138 l 283 116 l 284 107 q 287 97 296 97 q 304 98 312 108 q 319 117 326 129 q 338 151 345 186 q 352 221 352 269 l 352 521 q 372 521 413 524 q 454 527 474 527 q 531 533 597 544 l 597 0 l 367 0 l 354 77 q 339 54 321 39 q 298 18 274 6 q 249 -7 223 -11 q 197 -15 170 -15 q 100 -15 68 27 q 36 69 36 158 z"},"]":{"x_min":0,"x_max":320,"ha":320,"o":"m 7 -98 l 7 45 l 66 45 l 66 676 l 7 676 l 7 819 l 284 819 l 284 -98 z"},"U":{"x_min":0,"x_max":661,"ha":661,"o":"m 36 271 l 36 720 l 294 720 l 294 265 q 294 162 324 120 q 353 78 421 78 q 482 78 510 123 q 539 168 539 266 l 539 720 l 625 720 l 625 267 q 625 127 558 56 q 492 -15 354 -15 q 337 -15 320 -15 q 295 -12 283 -11 q 146 5 91 68 q 36 131 36 271 z"},"o":{"x_min":0,"x_max":634,"ha":634,"o":"m 22 264 q 22 380 89 460 q 161 546 277 546 q 436 546 524 477 q 613 408 613 275 q 613 263 612 254 q 612 244 608 211 q 593 107 528 47 q 463 -13 357 -13 q 198 -13 110 62 q 22 136 22 264 z m 274 256 q 274 238 274 220 q 273 202 273 183 q 273 115 280 86 q 291 42 321 42 q 344 42 352 80 q 360 119 360 181 q 360 202 360 223 q 359 244 359 265 q 359 282 359 300 q 359 319 360 338 q 360 430 348 460 q 337 489 315 489 q 290 489 282 446 q 273 404 273 331 q 273 311 273 292 q 273 274 274 256 z"},"N":{"x_min":0,"x_max":650,"ha":650,"o":"m 36 0 l 36 720 l 190 720 l 528 272 l 528 720 l 614 720 l 614 0 l 416 0 l 123 382 l 123 0 z"},"G":{"x_min":0,"x_max":714,"ha":714,"o":"m 631 528 l 523 477 l 525 496 q 527 508 527 520 q 527 531 527 537 q 527 601 502 635 q 477 669 432 669 q 410 669 383 660 q 340 645 322 594 q 300 533 300 402 l 299 357 q 299 322 299 288 q 299 253 300 218 q 300 140 315 104 q 327 74 354 64 q 359 62 366 61 q 372 60 377 60 q 416 60 428 109 l 430 123 l 430 129 l 430 163 l 430 306 l 363 306 l 363 395 l 678 395 l 678 0 l 583 0 l 557 54 q 528 21 482 3 q 435 -15 371 -15 q 349 -15 335 -13 q 321 -11 314 -11 q 180 4 102 95 q 21 189 21 339 q 21 366 22 380 q 23 394 28 424 q 46 541 115 618 q 184 696 290 722 q 352 736 400 736 q 499 736 560 688 q 621 640 630 565 q 631 559 631 546 q 631 534 631 528 z"},"q":{"x_min":0,"x_max":611,"ha":611,"o":"m 462 451 l 503 533 l 575 533 l 575 -180 l 331 -180 l 331 39 q 324 36 318 34 q 273 -16 220 -16 q 200 -16 182 -11 q 110 9 68 76 q 22 150 22 267 q 22 393 81 466 q 137 535 234 546 q 244 547 252 548 q 259 548 263 548 q 347 548 421 489 q 429 483 446 467 q 451 462 462 451 z m 256 265 q 256 249 256 233 q 255 217 255 201 q 255 141 262 116 q 273 78 303 78 q 326 78 334 112 q 342 145 342 199 q 342 218 342 237 q 341 256 341 274 q 341 285 341 294 q 341 304 341 310 q 341 374 335 401 q 326 444 297 444 q 272 444 264 412 q 255 379 255 323 q 255 308 255 294 q 255 279 256 265 z"},"d":{"x_min":0,"x_max":615,"ha":615,"o":"m 335 503 l 335 711 q 411 711 464 716 q 517 720 579 734 l 579 0 l 347 0 l 334 54 l 326 40 q 291 -15 221 -15 q 207 -15 192 -12 q 125 -1 79 60 q 33 120 24 217 q 23 228 22 238 q 22 248 22 263 q 22 276 22 286 q 22 295 26 317 q 40 424 99 488 q 154 547 228 547 q 234 547 240 547 q 248 545 260 544 q 272 542 306 522 q 317 516 335 503 z m 260 262 q 260 173 264 144 q 273 80 304 80 q 325 80 333 123 q 338 152 338 216 l 338 266 l 338 311 q 338 378 333 409 q 325 456 304 456 q 277 456 268 422 q 259 389 259 331 q 259 313 259 296 q 259 278 260 262 z"},"1":{"x_min":0,"x_max":676,"ha":676,"o":"m 64 481 l 64 601 l 87 602 q 168 609 221 638 q 274 668 305 720 l 471 720 l 471 0 l 212 0 l 212 511 l 192 504 q 126 481 64 481 z"},"5":{"x_min":0,"x_max":678,"ha":678,"o":"m 47 230 l 162 254 q 158 245 154 236 q 151 227 148 213 q 146 199 146 184 q 146 133 175 101 q 204 69 251 69 q 307 69 340 108 q 378 153 378 238 q 378 302 351 339 q 324 376 276 376 q 256 376 236 369 q 197 357 174 324 q 163 309 159 293 l 56 317 l 126 720 l 588 720 l 556 533 l 188 533 l 170 418 q 227 462 297 474 q 333 480 365 480 q 486 480 561 409 q 636 338 636 232 q 636 120 555 55 q 469 -14 315 -14 q 274 -14 256 -12 q 238 -11 204 -5 q 122 12 77 59 q 32 106 32 165 q 32 197 47 230 z"}}}
